<mxfile host="Electron" agent="Mozilla/5.0 (Macintosh; Intel Mac OS X 10_15_7) AppleWebKit/537.36 (KHTML, like Gecko) draw.io/28.0.6 Chrome/138.0.7204.100 Electron/37.2.3 Safari/537.36" version="28.0.6">
  <diagram name="2. Self-service A" id="skTKWN4blmmDkn8odPTR">
    <mxGraphModel dx="1284" dy="733" grid="1" gridSize="10" guides="1" tooltips="1" connect="1" arrows="1" fold="1" page="1" pageScale="1" pageWidth="1169" pageHeight="827" math="0" shadow="0">
      <root>
        <mxCell id="phuv9GD80fr0bo5qfP-m-0" />
        <mxCell id="phuv9GD80fr0bo5qfP-m-1" parent="phuv9GD80fr0bo5qfP-m-0" />
        <mxCell id="5Arq7eF_hZPD4FN3Wk1f-3" value="" style="endArrow=block;html=1;rounded=0;endFill=1;strokeWidth=3;curved=1;fillColor=#dae8fc;strokeColor=#6c8ebf;" parent="phuv9GD80fr0bo5qfP-m-1" edge="1">
          <mxGeometry width="50" height="50" relative="1" as="geometry">
            <mxPoint x="120.22" y="330.3" as="sourcePoint" />
            <mxPoint x="920.44" y="330" as="targetPoint" />
            <Array as="points" />
          </mxGeometry>
        </mxCell>
        <mxCell id="IG8NB4mhRkDcXKaArnDM-2" value="" style="rounded=0;whiteSpace=wrap;html=1;fillColor=none;movable=1;resizable=1;rotatable=1;deletable=1;editable=1;locked=0;connectable=1;" parent="phuv9GD80fr0bo5qfP-m-1" vertex="1">
          <mxGeometry x="20" y="60" width="1000" height="610" as="geometry" />
        </mxCell>
        <mxCell id="phuv9GD80fr0bo5qfP-m-9" value="" style="endArrow=none;dashed=1;html=1;rounded=0;entryX=0.5;entryY=0;entryDx=0;entryDy=0;" parent="phuv9GD80fr0bo5qfP-m-1" edge="1" target="phuv9GD80fr0bo5qfP-m-10">
          <mxGeometry width="50" height="50" relative="1" as="geometry">
            <mxPoint x="920" y="280" as="sourcePoint" />
            <mxPoint x="920" y="640" as="targetPoint" />
          </mxGeometry>
        </mxCell>
        <mxCell id="phuv9GD80fr0bo5qfP-m-10" value="gast" style="text;strokeColor=none;align=center;fillColor=none;html=1;verticalAlign=middle;whiteSpace=wrap;rounded=0;fontSize=18;" parent="phuv9GD80fr0bo5qfP-m-1" vertex="1">
          <mxGeometry x="880.22" y="600" width="80" height="30" as="geometry" />
        </mxCell>
        <mxCell id="phuv9GD80fr0bo5qfP-m-15" value="" style="endArrow=block;html=1;rounded=0;endFill=1;strokeWidth=1;exitX=1;exitY=1;exitDx=0;exitDy=0;" parent="phuv9GD80fr0bo5qfP-m-1" edge="1" source="phuv9GD80fr0bo5qfP-m-25">
          <mxGeometry width="50" height="50" relative="1" as="geometry">
            <mxPoint x="880.22" y="449.29" as="sourcePoint" />
            <mxPoint x="600.11" y="449.88" as="targetPoint" />
          </mxGeometry>
        </mxCell>
        <mxCell id="phuv9GD80fr0bo5qfP-m-18" value="" style="endArrow=block;html=1;rounded=0;endFill=1;strokeWidth=3;fillColor=#dae8fc;strokeColor=#6c8ebf;" parent="phuv9GD80fr0bo5qfP-m-1" edge="1">
          <mxGeometry width="50" height="50" relative="1" as="geometry">
            <mxPoint x="920" y="560" as="sourcePoint" />
            <mxPoint x="120.22" y="560" as="targetPoint" />
          </mxGeometry>
        </mxCell>
        <mxCell id="phuv9GD80fr0bo5qfP-m-25" value="login met eduID (zonodig aanmaken)&lt;div&gt;daarna MFA, verificatie, etc.&lt;/div&gt;" style="text;html=1;align=right;verticalAlign=middle;whiteSpace=wrap;rounded=0;spacingLeft=10;fontSize=12;spacingRight=10;fontStyle=2;strokeWidth=0;strokeColor=none;" parent="phuv9GD80fr0bo5qfP-m-1" vertex="1">
          <mxGeometry x="630" y="420" width="290.33" height="30" as="geometry" />
        </mxCell>
        <mxCell id="phuv9GD80fr0bo5qfP-m-32" value="interne systemen" style="text;strokeColor=none;align=center;fillColor=none;html=1;verticalAlign=middle;whiteSpace=wrap;rounded=0;fontSize=18;" parent="phuv9GD80fr0bo5qfP-m-1" vertex="1">
          <mxGeometry x="90" y="610" width="60" height="30" as="geometry" />
        </mxCell>
        <mxCell id="phuv9GD80fr0bo5qfP-m-33" value="" style="endArrow=none;dashed=1;html=1;rounded=0;" parent="phuv9GD80fr0bo5qfP-m-1" edge="1">
          <mxGeometry width="50" height="50" relative="1" as="geometry">
            <mxPoint x="120" y="80" as="sourcePoint" />
            <mxPoint x="120" y="600" as="targetPoint" />
          </mxGeometry>
        </mxCell>
        <mxCell id="5Arq7eF_hZPD4FN3Wk1f-18" value="" style="endArrow=block;html=1;rounded=0;endFill=1;strokeWidth=3;startArrow=none;startFill=0;entryX=1;entryY=0.5;entryDx=0;entryDy=0;" parent="phuv9GD80fr0bo5qfP-m-1" edge="1">
          <mxGeometry width="50" height="50" relative="1" as="geometry">
            <mxPoint x="440.22" y="481" as="sourcePoint" />
            <mxPoint x="120.22000000000023" y="481" as="targetPoint" />
          </mxGeometry>
        </mxCell>
        <mxCell id="5Arq7eF_hZPD4FN3Wk1f-12" value="guest_id" style="rounded=1;whiteSpace=wrap;html=1;fontSize=12;fontStyle=1" parent="phuv9GD80fr0bo5qfP-m-1" vertex="1">
          <mxGeometry x="50.11" y="120" width="60.22" height="20" as="geometry" />
        </mxCell>
        <mxCell id="IG8NB4mhRkDcXKaArnDM-0" value="&lt;div style=&quot;&quot;&gt;&lt;b&gt;&lt;font style=&quot;font-size: 15px;&quot;&gt;eduIDM&lt;/font&gt;&lt;/b&gt;&lt;/div&gt;&lt;div style=&quot;&quot;&gt;&lt;br&gt;&lt;/div&gt;&lt;div style=&quot;&quot;&gt;&lt;br&gt;&lt;/div&gt;&lt;div style=&quot;&quot;&gt;&lt;br&gt;&lt;/div&gt;&lt;div style=&quot;&quot;&gt;&lt;br&gt;&lt;/div&gt;&lt;div style=&quot;&quot;&gt;&lt;br&gt;&lt;/div&gt;&lt;div style=&quot;&quot;&gt;&lt;br&gt;&lt;/div&gt;&lt;div style=&quot;&quot;&gt;&lt;br&gt;&lt;/div&gt;&lt;div style=&quot;&quot;&gt;&lt;br&gt;&lt;/div&gt;&lt;div style=&quot;&quot;&gt;&lt;br&gt;&lt;/div&gt;&lt;div style=&quot;&quot;&gt;&lt;br&gt;&lt;/div&gt;&lt;div style=&quot;&quot;&gt;&lt;br&gt;&lt;/div&gt;&lt;div style=&quot;&quot;&gt;&lt;br&gt;&lt;/div&gt;&lt;div style=&quot;&quot;&gt;&lt;br&gt;&lt;/div&gt;" style="rounded=0;whiteSpace=wrap;html=1;labelPosition=center;verticalLabelPosition=middle;align=center;verticalAlign=middle;strokeWidth=2;" parent="phuv9GD80fr0bo5qfP-m-1" vertex="1">
          <mxGeometry x="440" y="190" width="160" height="350" as="geometry" />
        </mxCell>
        <mxCell id="xmEQPPBNaAYqg-dMH2K0-1" value="1. Gast is in interne applicatie bekend met&amp;nbsp; &#39;guest_id&#39;" style="text;html=1;align=left;verticalAlign=middle;whiteSpace=wrap;rounded=0;spacingLeft=5;fontSize=14;spacingRight=10;fontStyle=0;fontColor=default;" parent="phuv9GD80fr0bo5qfP-m-1" vertex="1">
          <mxGeometry x="120" y="120" width="210" height="31" as="geometry" />
        </mxCell>
        <mxCell id="Cax_BsI4QFTAWeA21jvr-0" value="" style="endArrow=block;html=1;rounded=0;endFill=1;strokeWidth=3;entryX=1;entryY=1;entryDx=0;entryDy=0;exitX=0;exitY=1;exitDx=0;exitDy=0;" edge="1" parent="phuv9GD80fr0bo5qfP-m-1" source="Cax_BsI4QFTAWeA21jvr-3" target="Cax_BsI4QFTAWeA21jvr-3">
          <mxGeometry width="50" height="50" relative="1" as="geometry">
            <mxPoint x="160.22" y="242" as="sourcePoint" />
            <mxPoint x="360.22" y="242" as="targetPoint" />
          </mxGeometry>
        </mxCell>
        <mxCell id="Cax_BsI4QFTAWeA21jvr-2" value="" style="endArrow=block;html=1;rounded=0;endFill=1;strokeWidth=1;entryX=0;entryY=0;entryDx=0;entryDy=0;" edge="1" parent="phuv9GD80fr0bo5qfP-m-1" target="Cax_BsI4QFTAWeA21jvr-5">
          <mxGeometry width="50" height="50" relative="1" as="geometry">
            <mxPoint x="440" y="251" as="sourcePoint" />
            <mxPoint x="160.00000000000003" y="251" as="targetPoint" />
          </mxGeometry>
        </mxCell>
        <mxCell id="Cax_BsI4QFTAWeA21jvr-3" value="POST /api/invitations {guest_id, group_name}" style="text;html=1;align=center;verticalAlign=middle;whiteSpace=wrap;rounded=0;spacingLeft=5;fontSize=12;spacingRight=10;fontStyle=2" vertex="1" parent="phuv9GD80fr0bo5qfP-m-1">
          <mxGeometry x="120" y="211" width="320" height="31" as="geometry" />
        </mxCell>
        <mxCell id="Cax_BsI4QFTAWeA21jvr-5" value="returns { invitation_id, .... }" style="text;html=1;align=center;verticalAlign=middle;whiteSpace=wrap;rounded=0;spacingLeft=5;fontSize=12;spacingRight=10;fontStyle=2" vertex="1" parent="phuv9GD80fr0bo5qfP-m-1">
          <mxGeometry x="120" y="251" width="210" height="20" as="geometry" />
        </mxCell>
        <mxCell id="Cax_BsI4QFTAWeA21jvr-6" value="2. API call geeft invitation_id" style="text;html=1;align=left;verticalAlign=middle;whiteSpace=wrap;rounded=0;spacingLeft=5;fontSize=14;spacingRight=10;fontStyle=0" vertex="1" parent="phuv9GD80fr0bo5qfP-m-1">
          <mxGeometry x="120.22" y="180" width="269.78" height="31" as="geometry" />
        </mxCell>
        <mxCell id="Cax_BsI4QFTAWeA21jvr-7" value="invitation_id" style="rounded=1;whiteSpace=wrap;html=1;fontSize=12;fontStyle=1" vertex="1" parent="phuv9GD80fr0bo5qfP-m-1">
          <mxGeometry x="350" y="271" width="80.22" height="20" as="geometry" />
        </mxCell>
        <mxCell id="Cax_BsI4QFTAWeA21jvr-8" value="3. Mail link met invitation_id naar de gast" style="text;html=1;align=left;verticalAlign=middle;whiteSpace=wrap;rounded=0;spacingLeft=5;fontSize=14;spacingRight=10;fontStyle=0;fontColor=default;" vertex="1" parent="phuv9GD80fr0bo5qfP-m-1">
          <mxGeometry x="120" y="299" width="320" height="31" as="geometry" />
        </mxCell>
        <mxCell id="Cax_BsI4QFTAWeA21jvr-9" value="handmatig of geautomatiseerd" style="text;html=1;align=left;verticalAlign=middle;whiteSpace=wrap;rounded=0;spacingLeft=5;fontSize=12;spacingRight=10;fontStyle=2" vertex="1" parent="phuv9GD80fr0bo5qfP-m-1">
          <mxGeometry x="130" y="330" width="260" height="20" as="geometry" />
        </mxCell>
        <mxCell id="Cax_BsI4QFTAWeA21jvr-10" value="" style="endArrow=block;html=1;rounded=0;endFill=1;strokeWidth=3;startArrow=none;startFill=0;entryX=1;entryY=0.5;entryDx=0;entryDy=0;" edge="1" parent="phuv9GD80fr0bo5qfP-m-1">
          <mxGeometry width="50" height="50" relative="1" as="geometry">
            <mxPoint x="919.9999999999998" y="389.64" as="sourcePoint" />
            <mxPoint x="600" y="389.64" as="targetPoint" />
          </mxGeometry>
        </mxCell>
        <mxCell id="Cax_BsI4QFTAWeA21jvr-11" value="4. Gast klikt op link in uitnodiging" style="text;html=1;align=right;verticalAlign=middle;whiteSpace=wrap;rounded=0;spacingLeft=5;fontSize=14;spacingRight=10;fontStyle=0" vertex="1" parent="phuv9GD80fr0bo5qfP-m-1">
          <mxGeometry x="650" y="340" width="270" height="31" as="geometry" />
        </mxCell>
        <mxCell id="Cax_BsI4QFTAWeA21jvr-12" value="/accept/{invitation_id}" style="text;html=1;align=right;verticalAlign=middle;whiteSpace=wrap;rounded=0;spacingLeft=5;fontSize=12;spacingRight=10;fontStyle=2" vertex="1" parent="phuv9GD80fr0bo5qfP-m-1">
          <mxGeometry x="630" y="360" width="290" height="31" as="geometry" />
        </mxCell>
        <mxCell id="Cax_BsI4QFTAWeA21jvr-13" value="&lt;div&gt;/accept&lt;/div&gt;&lt;div&gt;onboarding stappen:&lt;/div&gt;&lt;div&gt;- eduID auth&lt;/div&gt;&lt;div&gt;- check MFA&lt;/div&gt;&lt;div&gt;- verifieer instelling&lt;/div&gt;&lt;div&gt;- verifieer iDIN&lt;/div&gt;&lt;div&gt;- ...&lt;/div&gt;" style="rounded=0;whiteSpace=wrap;html=1;fontSize=12;align=left;spacingLeft=4;" vertex="1" parent="phuv9GD80fr0bo5qfP-m-1">
          <mxGeometry x="470" y="381.5" width="130" height="108.5" as="geometry" />
        </mxCell>
        <mxCell id="Cax_BsI4QFTAWeA21jvr-14" value="toont stappenplan" style="text;html=1;align=right;verticalAlign=middle;whiteSpace=wrap;rounded=0;spacingLeft=5;fontSize=12;spacingRight=10;fontStyle=2" vertex="1" parent="phuv9GD80fr0bo5qfP-m-1">
          <mxGeometry x="710" y="391" width="210" height="20" as="geometry" />
        </mxCell>
        <mxCell id="Cax_BsI4QFTAWeA21jvr-15" value="" style="endArrow=block;html=1;rounded=0;endFill=1;strokeWidth=1;exitX=0;exitY=0.5;exitDx=0;exitDy=0;" edge="1" parent="phuv9GD80fr0bo5qfP-m-1">
          <mxGeometry width="50" height="50" relative="1" as="geometry">
            <mxPoint x="919.8899999999999" y="460.12" as="sourcePoint" />
            <mxPoint x="600" y="460" as="targetPoint" />
          </mxGeometry>
        </mxCell>
        <mxCell id="Cax_BsI4QFTAWeA21jvr-17" value="" style="endArrow=block;html=1;rounded=0;endFill=1;strokeWidth=1;exitX=0;exitY=0.5;exitDx=0;exitDy=0;" edge="1" parent="phuv9GD80fr0bo5qfP-m-1">
          <mxGeometry width="50" height="50" relative="1" as="geometry">
            <mxPoint x="919.8899999999999" y="470.12" as="sourcePoint" />
            <mxPoint x="600" y="470" as="targetPoint" />
          </mxGeometry>
        </mxCell>
        <mxCell id="Cax_BsI4QFTAWeA21jvr-19" style="edgeStyle=orthogonalEdgeStyle;rounded=0;orthogonalLoop=1;jettySize=auto;html=1;exitX=0.5;exitY=1;exitDx=0;exitDy=0;" edge="1" parent="phuv9GD80fr0bo5qfP-m-1">
          <mxGeometry relative="1" as="geometry">
            <mxPoint x="835" y="470" as="sourcePoint" />
            <mxPoint x="835" y="470" as="targetPoint" />
          </mxGeometry>
        </mxCell>
        <mxCell id="Cax_BsI4QFTAWeA21jvr-20" value="5. Callback: eduID toevoegen aan gast&amp;nbsp;" style="text;html=1;align=left;verticalAlign=middle;whiteSpace=wrap;rounded=0;spacingLeft=5;fontSize=14;spacingRight=10;fontStyle=0" vertex="1" parent="phuv9GD80fr0bo5qfP-m-1">
          <mxGeometry x="120" y="420" width="269.78" height="31" as="geometry" />
        </mxCell>
        <mxCell id="Cax_BsI4QFTAWeA21jvr-21" value="POST /somewhere {guest_id, eduID, userinfo}" style="text;html=1;align=center;verticalAlign=middle;whiteSpace=wrap;rounded=0;spacingLeft=5;fontSize=12;spacingRight=10;fontStyle=2" vertex="1" parent="phuv9GD80fr0bo5qfP-m-1">
          <mxGeometry x="140" y="451" width="300" height="31" as="geometry" />
        </mxCell>
        <mxCell id="Cax_BsI4QFTAWeA21jvr-24" value="eduID" style="rounded=1;whiteSpace=wrap;html=1;fontSize=12;fontStyle=1" vertex="1" parent="phuv9GD80fr0bo5qfP-m-1">
          <mxGeometry x="50.11" y="490" width="60.22" height="20" as="geometry" />
        </mxCell>
        <mxCell id="Cax_BsI4QFTAWeA21jvr-25" value="eduID" style="rounded=1;whiteSpace=wrap;html=1;fontSize=12;fontStyle=1" vertex="1" parent="phuv9GD80fr0bo5qfP-m-1">
          <mxGeometry x="930" y="429" width="60.22" height="20" as="geometry" />
        </mxCell>
        <mxCell id="Cax_BsI4QFTAWeA21jvr-26" value="orgID" style="rounded=1;whiteSpace=wrap;html=1;fontSize=12;fontStyle=0;dashed=1;" vertex="1" parent="phuv9GD80fr0bo5qfP-m-1">
          <mxGeometry x="930" y="460" width="60.22" height="20" as="geometry" />
        </mxCell>
        <mxCell id="Cax_BsI4QFTAWeA21jvr-27" value="iDIN" style="rounded=1;whiteSpace=wrap;html=1;fontSize=12;fontStyle=0;dashed=1;" vertex="1" parent="phuv9GD80fr0bo5qfP-m-1">
          <mxGeometry x="930" y="480" width="60.22" height="20" as="geometry" />
        </mxCell>
        <mxCell id="Cax_BsI4QFTAWeA21jvr-29" value="" style="endArrow=block;html=1;rounded=0;endFill=1;strokeWidth=3;entryX=1;entryY=1;entryDx=0;entryDy=0;exitX=0;exitY=1;exitDx=0;exitDy=0;" edge="1" parent="phuv9GD80fr0bo5qfP-m-1">
          <mxGeometry width="50" height="50" relative="1" as="geometry">
            <mxPoint x="600.33" y="520" as="sourcePoint" />
            <mxPoint x="920.33" y="520" as="targetPoint" />
          </mxGeometry>
        </mxCell>
        <mxCell id="Cax_BsI4QFTAWeA21jvr-30" value="stappen voltooid: toon link naar applicatie" style="text;html=1;align=right;verticalAlign=middle;whiteSpace=wrap;rounded=0;spacingLeft=5;fontSize=12;spacingRight=10;fontStyle=2" vertex="1" parent="phuv9GD80fr0bo5qfP-m-1">
          <mxGeometry x="660" y="491" width="260" height="30" as="geometry" />
        </mxCell>
        <mxCell id="Cax_BsI4QFTAWeA21jvr-32" value="guest_id" style="rounded=1;whiteSpace=wrap;html=1;fontSize=12;fontStyle=0" vertex="1" parent="phuv9GD80fr0bo5qfP-m-1">
          <mxGeometry x="50.11" y="470" width="60.22" height="20" as="geometry" />
        </mxCell>
        <mxCell id="Cax_BsI4QFTAWeA21jvr-33" value="6. Toegang naar applicatie met eduID&amp;nbsp;" style="text;html=1;align=left;verticalAlign=middle;whiteSpace=wrap;rounded=0;spacingLeft=5;fontSize=14;spacingRight=10;fontStyle=0;fontColor=default;" vertex="1" parent="phuv9GD80fr0bo5qfP-m-1">
          <mxGeometry x="385.11" y="560" width="269.78" height="31" as="geometry" />
        </mxCell>
      </root>
    </mxGraphModel>
  </diagram>
</mxfile>
